HIERARCHY
ROOT joint_Root
{
	OFFSET 0.0 0.0 0.0
	CHANNELS 6 Xposition Yposition Zposition Zrotation Xrotation Yrotation 
	JOINT Hips
	{
		OFFSET 4.5925 91.4895 -427.239
		CHANNELS 6 Xposition Yposition Zposition Zrotation Xrotation Yrotation 
		JOINT Spine
		{
			OFFSET 15.7357 0.0 0.0
			CHANNELS 6 Xposition Yposition Zposition Zrotation Xrotation Yrotation 
			JOINT Chest
			{
				OFFSET 8.98455 -0.406207 0.0
				CHANNELS 6 Xposition Yposition Zposition Zrotation Xrotation Yrotation 
				JOINT Neck
				{
					OFFSET 16.3773 0.0 0.0
					CHANNELS 6 Xposition Yposition Zposition Zrotation Xrotation Yrotation 
					JOINT Head
					{
						OFFSET 6.45672 0.0 0.0
						CHANNELS 6 Xposition Yposition Zposition Zrotation Xrotation Yrotation 
						End Site
						{
							OFFSET 0.0 0.0 0.0
						}
					}
				}
				JOINT Shoulder_L
				{
					OFFSET 12.9942 -0.242716 4.98039
					CHANNELS 6 Xposition Yposition Zposition Zrotation Xrotation Yrotation 
					JOINT UpperArm_L
					{
						OFFSET 5.34809 0.0 0.0
						CHANNELS 6 Xposition Yposition Zposition Zrotation Xrotation Yrotation 
						JOINT LowerArm_L
						{
							OFFSET 24.3286 1.87007e-05 0.0
							CHANNELS 6 Xposition Yposition Zposition Zrotation Xrotation Yrotation 
							JOINT Hand_L
							{
								OFFSET 22.2916 0.0 0.0
								CHANNELS 6 Xposition Yposition Zposition Zrotation Xrotation Yrotation 
								End Site
								{
									OFFSET 0.0 0.0 0.0
								}
							}
						}
					}
				}
				JOINT Shoulder_R
				{
					OFFSET 12.9945 -0.242716 -4.98039
					CHANNELS 6 Xposition Yposition Zposition Zrotation Xrotation Yrotation 
					JOINT UpperArm_R
					{
						OFFSET -5.34813 0.0 0.0
						CHANNELS 6 Xposition Yposition Zposition Zrotation Xrotation Yrotation 
						JOINT LowerArm_R
						{
							OFFSET -24.3289 0.000322201 0.0
							CHANNELS 6 Xposition Yposition Zposition Zrotation Xrotation Yrotation 
							JOINT Hand_R
							{
								OFFSET -22.2915 -0.000108084 0.0
								CHANNELS 6 Xposition Yposition Zposition Zrotation Xrotation Yrotation 
								End Site
								{
									OFFSET 0.0 0.0 0.0
								}
							}
						}
					}
				}
			}
		}
		JOINT UpperLeg_L
		{
			OFFSET -2.19248 -6.46944 0.0
			CHANNELS 6 Xposition Yposition Zposition Zrotation Xrotation Yrotation 
			JOINT LowerLeg_L
			{
				OFFSET 39.0811 0.0 -1.23785e-05
				CHANNELS 6 Xposition Yposition Zposition Zrotation Xrotation Yrotation 
				JOINT Foot_L
				{
					OFFSET 40.9854 0.0 -1.26872e-05
					CHANNELS 6 Xposition Yposition Zposition Zrotation Xrotation Yrotation 
					JOINT Toes_L
					{
						OFFSET 11.7543 0.0 0.0
						CHANNELS 6 Xposition Yposition Zposition Zrotation Xrotation Yrotation 
						End Site
						{
							OFFSET 0.0 0.0 0.0
						}
					}
				}
			}
		}
		JOINT UpperLeg_R
		{
			OFFSET -2.19251 6.46944 0.0
			CHANNELS 6 Xposition Yposition Zposition Zrotation Xrotation Yrotation 
			JOINT LowerLeg_R
			{
				OFFSET -39.0811 -0.00228153 -0.0401928
				CHANNELS 6 Xposition Yposition Zposition Zrotation Xrotation Yrotation 
				JOINT Foot_R
				{
					OFFSET -40.9854 0.0 0.0
					CHANNELS 6 Xposition Yposition Zposition Zrotation Xrotation Yrotation 
					JOINT Toes_R
					{
						OFFSET -11.7543 0.0 0.0
						CHANNELS 6 Xposition Yposition Zposition Zrotation Xrotation Yrotation 
						End Site
						{
							OFFSET 0.0 0.0 0.0
						}
					}
				}
			}
		}
	}
}
MOTION
Frames:	6
Frame Time:	0.0333333
0.000000 0.000000 0.000000 0.000000 0.000000 -0.000000 6.356610 79.843700 -389.687000 88.976700 8.841580 -14.413200 15.735700 0.000005 -0.000001 63.757100 80.044200 -64.119700 8.984550 -0.406207 -0.000000 10.152500 -8.755150 0.053556 16.377300 -0.000001 -0.000001 -4.369410 -3.815890 -0.014630 6.456720 -0.000001 -0.000000 -10.591500 -1.162280 7.882360 12.994200 -0.242716 4.980390 -88.788700 -5.000630 -76.365500 5.348090 -0.000007 -0.000001 -64.326900 8.684820 -49.860900 24.328600 0.000019 0.000005 9.349210 -0.719420 -94.392800 22.291600 -0.000001 0.000005 9.141620 5.575410 -9.962070 12.994500 -0.242716 -4.980390 88.565200 4.704150 -73.003500 -5.348130 -0.000001 -0.000004 -59.607600 30.167000 25.552400 -24.328900 0.000322 -0.000009 -2.326420 -3.119600 -36.698800 -22.291500 -0.000108 -0.000004 2.386420 5.487650 -6.043940 -2.192480 -6.469440 -0.000000 -179.435000 -3.827270 -16.504700 39.081100 -0.000007 -0.000012 0.020063 -0.015773 51.820400 40.985400 -0.000006 -0.000013 4.072570 0.809265 -98.188000 11.754300 -0.000000 0.000003 -0.158113 -0.226641 -18.758400 -2.192510 6.469440 -0.000001 -172.107000 4.494010 115.179000 -39.081100 -0.002282 -0.040193 -0.692672 -0.602871 130.893000 -40.985400 0.000008 0.000006 7.337350 0.409655 -25.818000 -11.754300 -0.000006 -0.000006 -0.016093 -0.144594 -22.474300
0.000000 0.000000 0.000000 0.000000 0.000000 -0.000000 5.563500 83.070400 -379.710000 84.878400 10.548000 -16.689500 15.735700 0.000005 -0.000001 54.100400 80.605900 -52.405800 8.984550 -0.406207 -0.000000 7.726030 -10.974300 4.137250 16.377300 -0.000001 -0.000001 -3.508510 -3.545170 0.041500 6.456720 -0.000001 -0.000000 -9.290840 1.140450 6.417340 12.994200 -0.242716 4.980390 -88.037800 -7.740470 -75.730500 5.348090 -0.000007 -0.000001 -63.741800 7.469750 -52.864200 24.328600 0.000019 0.000005 7.055980 -1.418410 -101.303000 22.291600 -0.000001 0.000005 6.239060 5.552170 -8.779780 12.994500 -0.242716 -4.980390 89.670500 0.980232 -71.388000 -5.348130 -0.000001 -0.000004 -58.365000 29.234600 30.994800 -24.328900 0.000322 -0.000009 -2.030300 -2.366640 -40.655800 -22.291500 -0.000108 -0.000004 2.859750 5.505020 -6.732570 -2.192480 -6.469440 -0.000000 -172.854000 -3.130380 -8.449830 39.081100 -0.000007 -0.000012 -0.019980 0.024378 39.339900 40.985400 -0.000006 -0.000013 2.028420 3.423160 -83.555500 11.754300 -0.000000 0.000003 -0.066321 -0.351803 -31.129900 -2.192510 6.469440 -0.000001 -167.744000 -1.102850 110.978000 -39.081100 -0.002282 -0.040193 -0.402538 -0.240847 120.676000 -40.985400 0.000008 0.000006 10.594500 -3.429500 -42.428000 -11.754300 -0.000006 -0.000006 -0.012540 -0.121731 -21.536300
0.000000 0.000000 0.000000 0.000000 0.000000 -0.000000 5.115090 87.052600 -369.909000 82.489900 11.331900 -19.465600 15.735700 0.000005 -0.000001 45.523400 81.143100 -42.313700 8.984550 -0.406207 -0.000000 5.332360 -12.453200 7.014250 16.377300 -0.000001 -0.000001 -3.108330 -2.872960 0.152639 6.456720 -0.000001 -0.000000 -8.423680 3.019310 5.203990 12.994200 -0.242716 4.980390 -87.461600 -9.258450 -74.595100 5.348090 -0.000007 -0.000001 -63.571400 8.593010 -52.905000 24.328600 0.000019 0.000005 8.853610 -2.583590 -106.132000 22.291600 -0.000001 0.000005 3.682200 5.517720 -7.254530 12.994500 -0.242716 -4.980390 90.846300 -2.411220 -70.658400 -5.348130 -0.000001 -0.000004 -59.585900 28.303300 35.763800 -24.328900 0.000322 -0.000009 -1.468120 -1.473060 -44.890600 -22.291500 -0.000108 -0.000004 3.348590 5.518470 -7.296770 -2.192480 -6.469440 -0.000000 -168.438000 -6.265650 -4.542430 39.081100 -0.000007 -0.000012 -0.007248 0.012689 29.738700 40.985400 -0.000006 -0.000013 0.392297 7.668960 -58.379100 11.754300 -0.000000 0.000003 -0.260829 -0.737726 -48.720600 -2.192510 6.469440 -0.000001 -167.237000 -5.562040 108.765000 -39.081100 -0.002282 -0.040193 -0.075862 -0.020921 104.739000 -40.985400 0.000008 0.000006 11.463700 -7.649840 -52.502800 -11.754300 -0.000006 -0.000006 -0.012592 -0.122080 -21.550600
0.000000 0.000000 0.000000 0.000000 0.000000 -0.000000 5.091030 90.538200 -360.132000 83.780800 10.869400 -19.700700 15.735700 0.000005 -0.000001 42.102100 80.724800 -38.802300 8.984550 -0.406207 -0.000000 5.200710 -13.810500 7.247480 16.377300 -0.000001 -0.000001 -2.326180 -2.157390 0.271131 6.456720 -0.000001 -0.000000 -9.614320 4.366400 4.981200 12.994200 -0.242716 4.980390 -87.283500 -9.211670 -73.490200 5.348090 -0.000007 -0.000001 -62.149800 10.703500 -52.356700 24.328600 0.000019 0.000005 9.891730 -3.487410 -109.229000 22.291600 -0.000001 0.000005 2.840900 5.488920 -6.092230 12.994500 -0.242716 -4.980390 91.572200 -4.301110 -69.901900 -5.348130 -0.000001 -0.000004 -61.567700 28.546200 38.572300 -24.328900 0.000322 -0.000009 -1.446940 -1.220410 -49.845800 -22.291500 -0.000108 -0.000004 3.194300 5.532890 -7.925820 -2.192480 -6.469440 -0.000000 -166.654000 -12.884800 0.591927 39.081100 -0.000007 -0.000012 0.035982 -0.090112 21.766700 40.985400 -0.000006 -0.000013 -5.655460 13.475800 -33.376200 11.754300 -0.000000 0.000003 -0.053372 -0.309601 -29.340200 -2.192510 6.469440 -0.000001 -169.694000 -5.943340 112.088000 -39.081100 -0.002282 -0.040193 0.101404 -0.007708 85.554600 -40.985400 0.000008 0.000006 12.049700 -10.516400 -59.521400 -11.754300 -0.000006 -0.000006 -0.014192 -0.132670 -21.984800
0.000000 0.000000 0.000000 0.000000 0.000000 -0.000000 5.447890 92.460600 -350.461000 85.521800 11.034500 -19.779300 15.735700 0.000005 -0.000001 38.631000 80.256400 -35.376700 8.984550 -0.406207 -0.000000 4.988200 -15.274500 7.200880 16.377300 -0.000001 -0.000001 -1.628470 -1.896050 0.794527 6.456720 -0.000001 -0.000000 -9.788350 5.553040 4.535390 12.994200 -0.242716 4.980390 -87.282700 -9.097940 -73.292200 5.348090 -0.000007 -0.000001 -61.406700 13.283100 -49.710000 24.328600 0.000019 0.000005 10.679700 -4.260260 -111.498000 22.291600 -0.000001 0.000005 2.175380 5.477230 -5.641090 12.994500 -0.242716 -4.980390 91.933900 -5.121330 -69.280000 -5.348130 -0.000001 -0.000004 -63.890200 29.493900 40.829000 -24.328900 0.000322 -0.000009 -0.824930 -0.557084 -55.921400 -22.291500 -0.000108 -0.000004 3.722610 5.546030 -8.518090 -2.192480 -6.469440 -0.000000 -166.470000 -12.381600 3.560280 39.081100 -0.000007 -0.000012 0.056777 -0.138963 22.223600 40.985400 -0.000006 -0.000013 -8.020970 11.711300 -27.854900 11.754300 -0.000000 0.000003 -0.005630 -0.067447 -19.321500 -2.192510 6.469440 -0.000001 -170.564000 -2.103540 117.563000 -39.081100 -0.002282 -0.040193 0.116679 -0.054823 64.220100 -40.985400 0.000008 0.000006 9.871230 -6.883210 -64.362200 -11.754300 -0.000006 -0.000006 -0.016334 -0.146064 -22.534700
0.000000 0.000000 0.000000 0.000000 0.000000 -0.000000 6.058240 92.916500 -340.608000 87.588800 11.089000 -18.242700 15.735700 0.000005 -0.000001 38.688600 79.643200 -35.854900 8.984550 -0.406207 -0.000000 5.773180 -16.180500 6.511790 16.377300 -0.000001 -0.000001 -2.013610 -2.305550 1.446320 6.456720 -0.000001 -0.000000 -8.717750 6.258830 3.975890 12.994200 -0.242716 4.980390 -87.407800 -8.921870 -73.726500 5.348090 -0.000007 -0.000001 -61.739300 16.520700 -45.015200 24.328600 0.000019 0.000005 11.773500 -5.037660 -112.846000 22.291600 -0.000001 0.000005 1.768950 5.471930 -5.442700 12.994500 -0.242716 -4.980390 91.631000 -4.238340 -68.929000 -5.348130 -0.000001 -0.000004 -65.571300 28.566200 41.204900 -24.328900 0.000322 -0.000009 -2.092980 -1.200480 -60.145000 -22.291500 -0.000108 -0.000004 4.209490 5.554810 -8.931760 -2.192480 -6.469440 -0.000000 -167.678000 -8.621970 5.912780 39.081100 -0.000007 -0.000012 0.062772 -0.109714 29.775500 40.985400 -0.000006 -0.000013 -6.499300 7.537830 -30.277800 11.754300 -0.000000 0.000003 -0.005459 -0.065847 -19.256300 -2.192510 6.469440 -0.000001 -170.063000 4.686650 125.868000 -39.081100 -0.002282 -0.040193 0.011309 -0.008794 42.422700 -40.985400 0.000008 0.000006 3.565440 5.369740 -68.242700 -11.754300 -0.000006 -0.000006 -0.018145 -0.156790 -22.975600
